<svg version="1.1" viewBox="0.0 0.0 453.12335958005247 439.09186351706035" fill="none" stroke="none" stroke-linecap="square" stroke-miterlimit="10" xmlns:xlink="http://www.w3.org/1999/xlink" xmlns="http://www.w3.org/2000/svg"><clipPath id="p.0"><path d="m0 0l453.12335 0l0 439.09186l-453.12335 0l0 -439.09186z" clip-rule="nonzero"/></clipPath><g clip-path="url(#p.0)"><path fill="#000000" fill-opacity="0.0" d="m0 0l453.12335 0l0 439.09186l-453.12335 0z" fill-rule="evenodd"/><path fill="#000000" fill-opacity="0.0" d="m0 70.45884l0 0c0 -40.96556 33.20915 -74.174706 74.17471 -74.174706l305.19388 0l0 0c19.672363 0 38.539 7.8148136 52.449432 21.725271c13.910461 13.910456 21.72528 32.777084 21.72528 52.44944l0 296.68997c0 40.965546 -33.209137 74.17468 -74.17471 74.17468l-305.19388 0c-40.965565 0 -74.17471 -33.209137 -74.17471 -74.17468z" fill-rule="evenodd"/><path fill="#38761d" d="m16.535433 84.47447l0 0c0 -37.74746 30.600363 -68.347824 68.347824 -68.347824l283.7768 0l0 0c18.126953 0 35.511505 7.2009106 48.329193 20.018614c12.8177185 12.817703 20.018616 30.20224 20.018616 48.32921l0 273.38312c0 37.747467 -30.600372 68.34781 -68.34781 68.34781l-283.7768 0c-37.74746 0 -68.347824 -30.600342 -68.347824 -68.34781z" fill-rule="evenodd"/><path fill="#ffffff" d="m94.43112 56.472153c5.6423187 0 9.921082 0.9902077 12.836281 2.9706268c2.9269562 1.970211 4.3904266 4.9000015 4.3904266 8.789383c0 3.7668762 -1.4634705 6.655838 -4.3904266 8.666878c-2.9151993 2.0008392 -7.193962 3.0012512 -12.836281 3.0012512l-20.576836 0l0 -23.428139zm1.7455978 29.629707c5.7716217 0 10.103279 0.9902115 12.994965 2.9706268c2.891693 1.9702072 4.337532 5.027603 4.337532 9.172188c0 4.0731277 -1.4458389 7.1152115 -4.337532 9.126259c-2.8916855 2.0008316 -7.223343 3.0012512 -12.994965 3.0012512l-22.322433 0l0 -24.270325zm-26.113365 -35.846584c-1.5869064 0 -2.7976608 0.36239624 -3.632248 1.0871887c-0.82284546 0.7247925 -1.2342529 1.7762489 -1.2342529 3.154377l0 57.865967c0 1.378128 0.41140747 2.4295883 1.2342529 3.1543808c0.8345871 0.71458435 2.0453415 1.0718765 3.632248 1.0718765l26.97734 0c8.016792 0 14.223351 -1.5669861 18.61966 -4.700943c4.408058 -3.133957 6.612091 -7.651146 6.612091 -13.551567c0 -4.6447983 -1.5340042 -8.375946 -4.6020126 -11.193443c-2.415596 -2.2263947 -5.5598907 -3.7503357 -9.432877 -4.571846l0 0c3.2472 -1.0100784 5.921303 -2.558838 8.022293 -4.646286c2.7858963 -2.7664642 4.1788406 -6.216881 4.1788406 -10.351257c0 -3.7056274 -0.9756546 -6.839588 -2.9269485 -9.401882c-1.9513016 -2.5724983 -4.748947 -4.532501 -8.392952 -5.880001c-3.6439972 -1.357708 -8.104958 -2.0365639 -13.382881 -2.0365639z" fill-rule="evenodd"/><path fill="#ffffff" d="m159.55305 75.65873c3.314865 0 6.0713654 0.6278076 8.269516 1.8834381c2.2099152 1.2556229 3.890854 3.0625 5.0428314 5.420624c1.0208282 2.0596008 1.5939178 4.5198135 1.7192688 7.3806305l-32.00859 0c0.25630188 -2.3424911 0.8548279 -4.4607162 1.7956085 -6.3546906c1.304779 -2.6031265 3.238449 -4.6396866 5.80101 -6.109688c2.5625458 -1.4802094 5.689331 -2.220314 9.380356 -2.220314zm-0.22921753 -5.635002c-4.9840546 0 -9.374481 1.005516 -13.171295 3.0165634c-3.7850494 2.0008316 -6.759018 4.7724 -8.921921 8.31469c-2.1628876 3.5422897 -3.244339 7.6970825 -3.244339 12.464386c0 4.8897934 1.0990906 9.095627 3.2972412 12.617508c2.1981506 3.5116653 5.301422 6.221985 9.30983 8.130936c4.0083923 1.9089584 8.792603 2.8634415 14.352646 2.8634415c3.1855621 0 6.4005127 -0.40322876 9.644836 -1.2096863c3.2561035 -0.8166733 6.0772552 -1.980423 8.463486 -3.4912567c0.92863464 -0.500206 1.5575256 -1.0922852 1.8866577 -1.7762451c0.32913208 -0.6941757 0.3996582 -1.3372955 0.21157837 -1.9293823c-0.17631531 -0.6022873 -0.5172119 -1.107605 -1.0226746 -1.5159378c-0.5054474 -0.4083252 -1.1754761 -0.6278076 -2.0100708 -0.658432c-0.042556763 -0.0015869141 -0.085372925 -0.002380371 -0.12843323 -0.002380371c-0.789505 0 -1.6635742 0.26621246 -2.6221924 0.79862976c-2.3157043 1.3168716 -4.684311 2.2611465 -7.1058044 2.8328094c-2.4214935 0.5614624 -4.860626 0.8421936 -7.317383 0.8421936c-5.912674 0 -10.479431 -1.5057373 -13.700256 -4.5171967c-2.8890533 -2.7111511 -4.4776306 -6.539276 -4.765732 -11.484375l35.92192 0c1.2225037 0 2.157013 -0.23479462 2.8035278 -0.7043762c0.65826416 -0.4695816 0.98739624 -1.2045822 0.98739624 -2.2050018c0 -3.4504166 -0.52308655 -6.5537567 -1.5692596 -9.310005c-1.0461884 -2.7664642 -2.562561 -5.119484 -4.549118 -7.059067c-1.9865723 -1.949791 -4.390442 -3.4402084 -7.2115936 -4.4712524c-2.821167 -1.031044 -6.000839 -1.5465622 -9.539047 -1.5465622z" fill-rule="evenodd"/><path fill="#ffffff" d="m227.57133 95.044365l0 2.8174973c0 2.7052078 -0.6347656 5.0939636 -1.9042816 7.16626c-1.2577667 2.0620804 -2.985733 3.6903152 -5.1838837 4.8846893c-2.1981506 1.1943741 -4.7430725 1.791565 -7.6347656 1.791565c-3.538208 0 -6.335846 -0.8166733 -8.392944 -2.4500046c-2.0570984 -1.6333313 -3.0856476 -3.7362518 -3.0856476 -6.308754c0 -2.0722961 0.66415405 -3.669899 1.9924469 -4.792816c1.3400421 -1.1331253 3.685135 -1.9344788 7.035263 -2.4040604c3.3618774 -0.4695816 7.9697876 -0.7043762 13.823685 -0.7043762zm-11.584381 -25.020638c-2.821167 0 -5.783386 0.31645966 -8.886658 0.94937134c-3.1032715 0.6227112 -6.2418213 1.6231232 -9.415619 3.0012512c-0.8698578 0.37770844 -1.5046234 0.8830261 -1.9042816 1.5159378c-0.39967346 0.6227112 -0.5642395 1.2658386 -0.49371338 1.9293747c0.08229065 0.6533356 0.33502197 1.2301102 0.75819397 1.7303162c0.43492126 0.5002136 1.01091 0.8319855 1.727951 0.99531555c0.18849182 0.039596558 0.38639832 0.059402466 0.59375 0.059402466c0.5944214 0 1.2663574 -0.16271973 2.0158234 -0.48815155c2.821167 -1.2556305 5.495392 -2.1641693 8.022675 -2.7256317c2.527298 -0.5716629 5.0545807 -0.85749817 7.5818787 -0.85749817c4.1141815 0 7.070526 0.86260223 8.869019 2.5878143c1.8102417 1.7252121 2.7153625 4.532501 2.7153625 8.421883l0 2.9093704l-3.4559174 0c-7.946274 0 -14.211594 0.40833282 -18.795975 1.2250061c-4.5843964 0.81666565 -7.869873 2.1998978 -9.85643 4.1496887c-1.9865723 1.9395828 -2.9798584 4.603958 -2.9798584 7.993126c0 2.633751 0.8287201 5.0174026 2.486145 7.1509476c1.6574402 2.133545 3.9143677 3.8128128 6.7707825 5.0378113c2.85643 1.214798 6.0890045 1.8221893 9.697739 1.8221893c2.9622192 0 5.6305695 -0.4695816 8.005051 -1.4087524c2.3862305 -0.93917084 4.3904266 -2.2560425 6.0125885 -3.9506226c0.9669647 -1.002861 1.7486572 -2.1254883 2.3450928 -3.3678818l0 0l0 4.5928802c0 1.2556229 0.3585205 2.2305222 1.0755768 2.9246902c0.7287903 0.68395233 1.7749786 1.02594 3.1385345 1.02594c1.3047943 0 2.2980652 -0.3419876 2.9798431 -1.02594c0.6935425 -0.6941681 1.0403137 -1.6690674 1.0403137 -2.9246902l0 -25.49533c0 -4.0731277 -0.7229309 -7.411255 -2.1687775 -10.014381c-1.4458313 -2.6031265 -3.6498718 -4.5478134 -6.612091 -5.8340607c-2.9622192 -1.2862549 -6.7178802 -1.9293747 -11.266998 -1.9293747z" fill-rule="evenodd"/><path fill="#ffffff" d="m278.8027 69.91795c-0.13287354 0 -0.26940918 0.0046310425 -0.40960693 0.013893127c-4.772461 0.12250519 -8.786743 1.1892776 -12.042816 3.2003174c-2.4233093 1.4944916 -4.2629395 3.4645538 -5.5188904 5.9101715l0 0l0 -4.9761124c0 -1.2556229 -0.38204956 -2.2100983 -1.1461182 -2.8634338c-0.7522888 -0.6635437 -1.8102417 -0.99531555 -3.1737976 -0.99531555c-1.3753204 0 -2.4273682 0.33177185 -3.1561737 0.99531555c-0.717041 0.6533356 -1.0755615 1.607811 -1.0755615 2.8634338l0 39.23065c0 1.2556229 0.3761444 2.2305222 1.1284637 2.9246902c0.76405334 0.68395233 1.8690186 1.02594 3.3148499 1.02594c1.4458618 0 2.5449219 -0.3419876 3.2972412 -1.02594c0.7640686 -0.6941681 1.1460876 -1.6690674 1.1460876 -2.9246902l0 -22.7697c0 -4.0731277 1.3165588 -7.2836533 3.9496155 -9.631569c2.6330872 -2.3581314 6.4064026 -3.7260437 11.319916 -4.103752l1.7279663 -0.18375397c1.3753052 -0.12249756 2.3862305 -0.49510193 3.0327454 -1.1178131c0.65826416 -0.6329117 0.95214844 -1.4853134 0.8816223 -2.55719c-0.08230591 -1.1229095 -0.4466858 -1.9191666 -1.0932007 -2.3887482c-0.5627136 -0.41760254 -1.2901611 -0.6263962 -2.1823425 -0.6263962z" fill-rule="evenodd"/><path fill="#ffffff" d="m312.7352 75.65873c3.3148499 0 6.0713806 0.6278076 8.269531 1.8834381c2.2099 1.2556229 3.8908386 3.0625 5.042816 5.420624c1.020813 2.0596008 1.5939026 4.5198135 1.7192688 7.3806305l-32.008606 0c0.25631714 -2.3424911 0.8548279 -4.4607162 1.7956238 -6.3546906c1.304779 -2.6031265 3.2384338 -4.6396866 5.800995 -6.109688c2.562561 -1.4802094 5.6893616 -2.220314 9.380371 -2.220314zm-0.22921753 -5.635002c-4.9840393 0 -9.374481 1.005516 -13.171295 3.0165634c-3.7850647 2.0008316 -6.759033 4.7724 -8.921936 8.31469c-2.1628723 3.5422897 -3.2443237 7.6970825 -3.2443237 12.464386c0 4.8897934 1.0990906 9.095627 3.2972412 12.617508c2.1981506 3.5116653 5.301422 6.221985 9.309814 8.130936c4.008423 1.9089584 8.792633 2.8634415 14.352661 2.8634415c3.1855469 0 6.4005127 -0.40322876 9.644836 -1.2096863c3.2561035 -0.8166733 6.07724 -1.980423 8.46347 -3.4912567c0.9286499 -0.500206 1.5575256 -1.0922852 1.8866577 -1.7762451c0.32913208 -0.6941757 0.3996582 -1.3372955 0.21160889 -1.9293823c-0.17633057 -0.6022873 -0.51724243 -1.107605 -1.0226746 -1.5159378c-0.50546265 -0.4083252 -1.1755066 -0.6278076 -2.0101013 -0.658432c-0.042541504 -0.0015869141 -0.085357666 -0.002380371 -0.12841797 -0.002380371c-0.78948975 0 -1.6635742 0.26621246 -2.6221924 0.79862976c-2.3157043 1.3168716 -4.684326 2.2611465 -7.1058044 2.8328094c-2.4215088 0.5614624 -4.860626 0.8421936 -7.317383 0.8421936c-5.912689 0 -10.479431 -1.5057373 -13.700256 -4.5171967c-2.8890686 -2.7111511 -4.4776306 -6.539276 -4.765747 -11.484375l35.921936 0c1.2225037 0 2.157013 -0.23479462 2.8035278 -0.7043762c0.65826416 -0.4695816 0.98739624 -1.2045822 0.98739624 -2.2050018c0 -3.4504166 -0.5230713 -6.5537567 -1.5692749 -9.310005c-1.0461731 -2.7664642 -2.562561 -5.119484 -4.549103 -7.059067c-1.9865723 -1.949791 -4.390442 -3.4402084 -7.211609 -4.4712524c-2.8211365 -1.031044 -6.000824 -1.5465622 -9.539032 -1.5465622z" fill-rule="evenodd"/><path fill="#ffffff" d="m374.56863 69.91795c-0.13290405 0 -0.26940918 0.0046310425 -0.40960693 0.013893127c-4.7724915 0.12250519 -8.786774 1.1892776 -12.042847 3.2003174c-2.4233093 1.4944916 -4.2629395 3.4645538 -5.5188904 5.9101715l0 0l0 -4.9761124c0 -1.2556229 -0.38201904 -2.2100983 -1.1460876 -2.8634338c-0.75231934 -0.6635437 -1.8102417 -0.99531555 -3.1737976 -0.99531555c-1.3753357 0 -2.4273682 0.33177185 -3.156189 0.99531555c-0.717041 0.6533356 -1.0755615 1.607811 -1.0755615 2.8634338l0 39.23065c0 1.2556229 0.37615967 2.2305222 1.1284485 2.9246902c0.7640686 0.68395233 1.8690186 1.02594 3.3148804 1.02594c1.4458313 0 2.5449219 -0.3419876 3.2972412 -1.02594c0.7640686 -0.6941681 1.1460876 -1.6690674 1.1460876 -2.9246902l0 -22.7697c0 -4.0731277 1.3165283 -7.2836533 3.9496155 -9.631569c2.6330872 -2.3581314 6.406372 -3.7260437 11.319916 -4.103752l1.7279663 -0.18375397c1.3753052 -0.12249756 2.3862 -0.49510193 3.0327454 -1.1178131c0.65826416 -0.6329117 0.9521179 -1.4853134 0.8815918 -2.55719c-0.08227539 -1.1229095 -0.4466858 -1.9191666 -1.0932007 -2.3887482c-0.5626831 -0.41760254 -1.2901306 -0.6263962 -2.182312 -0.6263962z" fill-rule="evenodd"/><path fill="#ffffff" d="m102.204735 324.90356c-4.114197 0 -7.8698654 0.37530518 -11.267006 1.1259766c-3.3971481 0.7425842 -6.3241043 1.795929 -8.780861 3.1600342c-2.4450073 1.3560181 -4.355171 2.990509 -5.730484 4.903473c-1.3753128 1.9129639 -2.062973 4.0317383 -2.062973 6.3563538c0 3.7694397 1.6809464 6.7841797 5.042824 9.04422c3.3618774 2.2519531 8.43409 3.8743591 15.216629 4.867157l11.267014 1.5618591c5.3484497 0.7425842 9.157013 1.7474976 11.425697 3.01474c2.2804413 1.2672119 3.4206543 3.0147095 3.4206543 5.242462c0 2.7282104 -1.5751495 4.9236755 -4.725441 6.586426c-3.1385422 1.6627502 -7.958023 2.49411 -14.45845 2.49411c-4.619644 0 -8.774979 -0.3591919 -12.465996 -1.0775452c-3.6792603 -0.7183838 -7.1410675 -1.8726196 -10.385399 -3.4627075c-0.8377991 -0.35235596 -1.6196213 -0.52856445 -2.345459 -0.52856445c-0.08887482 0 -0.17691803 0.0026550293 -0.26411438 0.00793457c-0.78756714 0.048431396 -1.4517136 0.27041626 -1.9924469 0.6659241c-0.5407181 0.3955078 -0.9051132 0.87979126 -1.093193 1.4528809c-0.17632294 0.5730896 -0.105796814 1.1461487 0.211586 1.7192383c0.32913208 0.56500244 0.928627 1.0694885 1.7984848 1.5134277c2.2451782 1.1461487 4.754837 2.0905151 7.5289764 2.83313c2.7858963 0.7425842 5.80101 1.311615 9.0453415 1.7071228c3.2560883 0.3955078 6.576828 0.5932617 9.962219 0.5932617c4.3375397 0 8.240143 -0.34707642 11.707817 -1.0412292c3.4676743 -0.69415283 6.4298935 -1.6950378 8.886658 -3.0026245c2.4567642 -1.3156738 4.3316574 -2.889618 5.624687 -4.7218933c1.304779 -1.8403015 1.9571838 -3.8501282 1.9571838 -6.0294495c0 -3.6241455 -1.7514801 -6.489563 -5.2544174 -8.596222c-3.5029373 -2.1066895 -8.904289 -3.680664 -16.20404 -4.7218933l-11.267006 -1.634491c-4.831238 -0.64572144 -8.316544 -1.6627502 -10.455925 -3.051056c-2.1276245 -1.3883057 -3.1914368 -3.2730408 -3.1914368 -5.6541443c0 -1.9855957 0.7758179 -3.7330933 2.3274536 -5.2424927c1.5516434 -1.517456 3.714531 -2.671692 6.4886703 -3.4627075c2.7858963 -0.7910156 6.094879 -1.1865234 9.926956 -1.1865234c3.761551 0 7.193962 0.33499146 10.297234 1.0049133c3.103279 0.6699524 6.1007614 1.7474976 8.992455 3.232666c0.91147614 0.40026855 1.7465134 0.60040283 2.5050964 0.60040283c0.08274841 0 0.16459656 -0.002380371 0.24552917 -0.0071411133c0.83460236 -0.048431396 1.522255 -0.2461853 2.062973 -0.5932617c0.5407257 -0.34707642 0.91687775 -0.77890015 1.1284637 -1.2954712c0.2233429 -0.5246582 0.18807983 -1.0694885 -0.105789185 -1.634491c-0.28211975 -0.5730896 -0.8228378 -1.0856323 -1.6221695 -1.5376587c-3.1738052 -1.7353821 -6.729637 -3.034912 -10.667511 -3.8985596c-3.9378738 -0.8717346 -8.181366 -1.3075867 -12.730484 -1.3075867z" fill-rule="evenodd"/><path fill="#ffffff" d="m149.0055 330.26712c-1.3753052 0 -2.4626312 0.2623291 -3.261963 0.7869873c-0.78756714 0.51657104 -1.181366 1.2672424 -1.181366 2.2519531l0 8.559906l-7.2468414 0c-1.2342682 0 -2.174652 0.1977539 -2.821167 0.5932617c-0.6465149 0.3955078 -0.96977234 0.9645691 -0.96977234 1.7071533c0 0.75064087 0.32325745 1.335846 0.96977234 1.7555542c0.6465149 0.41973877 1.5868988 0.62957764 2.821167 0.62957764l7.2468414 0l0 18.97226c0 2.8250427 0.68766785 5.2182617 2.062973 7.179657c1.3753204 1.9533386 3.450058 3.438507 6.2241974 4.455536c2.7858887 1.0169983 6.2359314 1.5255127 10.350128 1.5255127c1.1519623 0 2.4332428 -0.088775635 3.8438263 -0.26635742c1.4105835 -0.16949463 2.5507965 -0.35110474 3.4206543 -0.5448303c0.7875824 -0.20178223 1.345932 -0.54885864 1.6750641 -1.0412292c0.32914734 -0.50045776 0.49371338 -1.0452881 0.49371338 -1.634491c0 -0.8475342 -0.21746826 -1.4448242 -0.6524048 -1.7919006c-0.3816681 -0.30459595 -0.8448181 -0.45687866 -1.3894196 -0.45687866c-0.07600403 0 -0.15357971 0.002960205 -0.23274231 0.008911133c-0.65826416 0 -1.475235 0.10089111 -2.450882 0.30267334c-0.975647 0.19372559 -2.1452484 0.29058838 -3.5088196 0.29058838c-3.9026031 0 -6.72377 -0.73049927 -8.463486 -2.1914368c-1.727951 -1.460968 -2.5919342 -3.6039734 -2.5919342 -6.429016l0 -18.378998l13.647354 0c1.2342682 0 2.174652 -0.20983887 2.821167 -0.62957764c0.6465149 -0.41970825 0.96977234 -1.0049133 0.96977234 -1.7555542c0 -0.7425842 -0.32325745 -1.3116455 -0.96977234 -1.7071533c-0.6465149 -0.3955078 -1.5868988 -0.5932617 -2.821167 -0.5932617l-13.647354 0l0 -8.559906c0 -0.9847107 -0.3820343 -1.7353821 -1.1461029 -2.2519531c-0.7523041 -0.5246582 -1.8161163 -0.7869873 -3.1914368 -0.7869873z" fill-rule="evenodd"/><path fill="#ffffff" d="m212.70023 360.98352l0 2.2277527c0 2.1389465 -0.63475037 4.02771 -1.9042816 5.6662292c-1.2577667 1.6304626 -2.9857178 2.9178772 -5.1838837 3.8622742c-2.1981506 0.94436646 -4.7430725 1.4165344 -7.6347656 1.4165344c-3.5381927 0 -6.335846 -0.64572144 -8.392944 -1.9371643c-2.0570984 -1.2914429 -3.0856476 -2.954193 -3.0856476 -4.9882507c0 -1.6385193 0.66415405 -2.9017334 1.9924469 -3.7895813c1.3400574 -0.8959656 3.685135 -1.5295715 7.035263 -1.9008789c3.3618927 -0.37127686 7.9697876 -0.5569153 13.823685 -0.5569153zm-11.584381 -19.783447c-2.821167 0 -5.783386 0.25021362 -8.886658 0.75064087c-3.1032715 0.4923706 -6.2418213 1.2833862 -9.415619 2.3730469c-0.8698578 0.29864502 -1.5046234 0.69821167 -1.9042816 1.1986389c-0.39967346 0.4923706 -0.5642395 1.000885 -0.49371338 1.5255432c0.08229065 0.51657104 0.33502197 0.97262573 0.75819397 1.368103c0.43492126 0.39553833 1.01091 0.6578369 1.7279663 0.7869873c0.18847656 0.031311035 0.38639832 0.046966553 0.59375 0.046966553c0.5944061 0 1.2663422 -0.12866211 2.0158234 -0.3859558c2.8211517 -0.99282837 5.4953766 -1.7111816 8.022659 -2.1551208c2.527298 -0.45199585 5.0545807 -0.67800903 7.5818787 -0.67800903c4.1141815 0 7.070526 0.68203735 8.869019 2.0461426c1.8102417 1.3641052 2.7153625 3.5837708 2.7153625 6.6590576l0 2.3003845l-3.4559174 0c-7.946274 0 -14.211594 0.32287598 -18.795975 0.9685974c-4.5843964 0.64572144 -7.869873 1.7394409 -9.85643 3.2810974c-1.9865723 1.5335999 -2.9798584 3.6402893 -2.9798584 6.320038c0 2.082489 0.8287201 3.9671936 2.4861603 5.6541443c1.6574249 1.6869507 3.9143524 3.01474 6.7707825 3.9833374c2.8564148 0.96051025 6.0890045 1.4407654 9.697739 1.4407654c2.9622192 0 5.630554 -0.37127686 8.005035 -1.1138916c2.3862305 -0.7425842 4.3904266 -1.7838135 6.0126038 -3.1236877c0.96694946 -0.79293823 1.748642 -1.6805725 2.3450775 -2.6629333l0 0l0 3.6315308c0 0.99279785 0.35853577 1.7636414 1.0755768 2.3125c0.7287903 0.540802 1.7749786 0.81118774 3.1385345 0.81118774c1.3047943 0 2.2980652 -0.27038574 2.9798584 -0.81118774c0.6935272 -0.54885864 1.0402985 -1.3197021 1.0402985 -2.3125l0 -20.158783c0 -3.2205505 -0.72291565 -5.859955 -2.1687622 -7.918213c-1.4458466 -2.058258 -3.649887 -3.5958862 -6.6121063 -4.612915c-2.962204 -1.0169983 -6.7178802 -1.5255127 -11.266998 -1.5255127z" fill-rule="evenodd"/><path fill="#ffffff" d="m259.39606 346.0309c5.0545654 0 9.062958 1.1784363 12.025177 3.5353394c2.9622192 2.356903 4.443329 5.5411377 4.443329 9.552734c0 2.6797485 -0.6700134 5.012451 -2.0100708 6.998047c-1.3283081 1.9855957 -3.2208252 3.511139 -5.677582 4.5765686c-2.4567566 1.0654602 -5.383728 1.598175 -8.780853 1.598175c-4.98407 0 -8.957199 -1.1905518 -11.919418 -3.5716553c-2.9622192 -2.381134 -4.443329 -5.5815125 -4.443329 -9.601135c0 -2.671692 0.6700287 -4.9882507 2.010086 -6.949646c1.3400421 -1.9613953 3.238449 -3.474823 5.6952057 -4.5402527c2.4567719 -1.0654602 5.342575 -1.598175 8.657455 -1.598175zm-1.6221924 -4.830841c-3.6087189 0 -6.8765717 0.43585205 -9.803513 1.3075867c-2.9269562 0.863678 -5.418991 2.0784302 -7.476074 3.6443176c-2.0570984 1.5578308 -3.6263733 3.4425354 -4.7078247 5.6541443c-1.0814362 2.2035522 -1.6221619 4.6411743 -1.6221619 7.312866c0 3.5756836 0.95214844 6.727661 2.85643 9.455841c1.9160309 2.72818 4.643158 4.846985 8.181366 6.3563538c3.538208 1.5093994 7.7288055 2.2640991 12.571777 2.2640991c4.6901855 0 8.786743 -0.839447 12.289703 -2.518341c2.5947876 -1.2496033 4.5284424 -2.8269653 5.800995 -4.7320557l0 0l0 6.293915c0 3.567627 -1.3165283 6.2917786 -3.9496155 8.172455c-2.6330872 1.8887634 -6.5180664 2.83313 -11.654938 2.83313c-2.8093872 0 -5.6599426 -0.25021362 -8.5516205 -0.75064087c-2.891693 -0.4923706 -5.9244385 -1.4085083 -9.098251 -2.7483826c-0.5254059 -0.1803894 -1.0386047 -0.27059937 -1.5395813 -0.27059937c-0.19392395 0 -0.38601685 0.013519287 -0.5762787 0.04055786c-0.6817932 0.10491943 -1.2754059 0.3430481 -1.7808685 0.71432495c-0.5054474 0.37130737 -0.8345947 0.7910156 -0.98739624 1.2591858c-0.1410675 0.4762268 -0.08816528 0.96051025 0.1586914 1.4528809c0.25860596 0.50042725 0.8228302 0.92419434 1.692688 1.2712708c2.9622192 1.3398743 6.26532 2.3165283 9.909332 2.9299927c3.6439972 0.6214905 7.382019 0.932251 11.214111 0.932251c7.793457 0 13.694366 -1.4004211 17.70279 -4.2012634c4.0083923 -2.8008423 6.0125732 -6.953644 6.0125732 -12.458466l0 -31.019073c0 -0.99279785 -0.3585205 -1.7474976 -1.0755615 -2.2640991c-0.717041 -0.5246277 -1.7984924 -0.7869568 -3.2443237 -0.7869568c-1.3753357 0 -2.4450073 0.2623291 -3.209076 0.7869568c-0.75231934 0.51660156 -1.128479 1.2713013 -1.128479 2.2640991l0 3.8814392l0 0c-1.2218933 -1.8439331 -3.1026611 -3.3718262 -5.6423035 -4.583679c-3.4559326 -1.6627502 -7.5701294 -2.49411 -12.34259 -2.49411z" fill-rule="evenodd"/><path fill="#ffffff" d="m323.2139 345.65558c3.3148804 0 6.0713806 0.49639893 8.269531 1.4891968c2.2099304 0.99282837 3.8908691 2.4214783 5.042816 4.2860107c1.0208435 1.6285095 1.5939331 3.573761 1.7192993 5.8357544l-32.008606 0c0.25628662 -1.8521729 0.8548279 -3.527008 1.7955933 -5.024536c1.3048096 -2.058258 3.2384644 -3.6685486 5.8010254 -4.830841c2.562561 -1.1703796 5.689331 -1.7555847 9.380341 -1.7555847zm-0.22921753 -4.4555054c-4.9840393 0 -9.374481 0.79504395 -13.171295 2.3851624c-3.7850342 1.5820312 -6.7590027 3.7734375 -8.9219055 6.57428c-2.1628723 2.8008423 -3.2443237 6.085968 -3.2443237 9.855408c0 3.866272 1.09906 7.1917725 3.2972107 9.976471c2.1981506 2.7766113 5.3014526 4.9196167 9.309845 6.429016c4.0083923 1.5093689 8.792603 2.2640686 14.352661 2.2640686c3.1855469 0 6.400482 -0.31881714 9.644836 -0.95648193c3.256073 -0.64572144 6.07724 -1.5658875 8.46347 -2.7604675c0.9286194 -0.3955078 1.5574951 -0.863678 1.8866577 -1.40448c0.32913208 -0.54885864 0.3996582 -1.057373 0.21157837 -1.5255127c-0.17633057 -0.4762268 -0.5172119 -0.87576294 -1.0226746 -1.1986389c-0.50546265 -0.32284546 -1.1754761 -0.49639893 -2.0100708 -0.52059937c-0.04257202 -0.0012512207 -0.085357666 -0.0018920898 -0.12844849 -0.0018920898c-0.78948975 0 -1.6635437 0.21047974 -2.6221924 0.6314697c-2.3157043 1.0412292 -4.6842957 1.7878418 -7.105774 2.2398682c-2.4215088 0.4439392 -4.8606567 0.66589355 -7.317383 0.66589355c-5.912689 0 -10.479462 -1.1905518 -13.700287 -3.5716858c-2.889038 -2.1436462 -4.4776306 -5.1705017 -4.7657166 -9.080505l35.921906 0c1.2225037 0 2.157013 -0.18563843 2.8035278 -0.5569458c0.6582947 -0.37127686 0.98742676 -0.9524536 0.98742676 -1.7434692c0 -2.72818 -0.5231018 -5.181946 -1.5692749 -7.361267c-1.0461731 -2.1874084 -2.562561 -4.0479126 -4.5491333 -5.5815125c-1.9865417 -1.5416565 -4.3904114 -2.7200928 -7.2115784 -3.5353394c-2.821167 -0.81521606 -6.0008545 -1.2228394 -9.5390625 -1.2228394z" fill-rule="evenodd"/><path fill="#ff9900" d="m104.938324 155.88518l0 0c0 -16.933823 13.727577 -30.661415 30.661407 -30.661415l0 0c8.131912 0 15.930771 3.2303848 21.680908 8.980522c5.750122 5.7501373 8.980515 13.548981 8.980515 21.680893l0 0c0 16.933838 -13.727585 30.661423 -30.661423 30.661423l0 0c-16.93383 0 -30.661407 -13.727585 -30.661407 -30.661423z" fill-rule="evenodd"/><path stroke="#ffffff" stroke-width="8.0" stroke-linejoin="round" stroke-linecap="butt" d="m104.938324 155.88518l0 0c0 -16.933823 13.727577 -30.661415 30.661407 -30.661415l0 0c8.131912 0 15.930771 3.2303848 21.680908 8.980522c5.750122 5.7501373 8.980515 13.548981 8.980515 21.680893l0 0c0 16.933838 -13.727585 30.661423 -30.661423 30.661423l0 0c-16.93383 0 -30.661407 -13.727585 -30.661407 -30.661423z" fill-rule="evenodd"/><path fill="#674ea7" d="m247.81496 278.54135l0 0c0 -16.933838 13.727585 -30.661423 30.661423 -30.661423l0 0c8.131897 0 15.930756 3.2303925 21.680908 8.980515c5.750122 5.7501526 8.980499 13.548981 8.980499 21.680908l0 0c0 16.933838 -13.72757 30.661407 -30.661407 30.661407l0 0c-16.933838 0 -30.661423 -13.72757 -30.661423 -30.661407z" fill-rule="evenodd"/><path stroke="#ffffff" stroke-width="8.0" stroke-linejoin="round" stroke-linecap="butt" d="m247.81496 278.54135l0 0c0 -16.933838 13.727585 -30.661423 30.661423 -30.661423l0 0c8.131897 0 15.930756 3.2303925 21.680908 8.980515c5.750122 5.7501526 8.980499 13.548981 8.980499 21.680908l0 0c0 16.933838 -13.72757 30.661407 -30.661407 30.661407l0 0c-16.933838 0 -30.661423 -13.72757 -30.661423 -30.661407z" fill-rule="evenodd"/><path fill="#3c78d8" d="m247.81496 155.88518l0 0c0 -16.933823 13.727585 -30.661415 30.661423 -30.661415l0 0c8.131897 0 15.930756 3.2303848 21.680908 8.980522c5.750122 5.7501373 8.980499 13.548981 8.980499 21.680893l0 0c0 16.933838 -13.72757 30.661423 -30.661407 30.661423l0 0c-16.933838 0 -30.661423 -13.727585 -30.661423 -30.661423z" fill-rule="evenodd"/><path stroke="#ffffff" stroke-width="8.0" stroke-linejoin="round" stroke-linecap="butt" d="m247.81496 155.88518l0 0c0 -16.933823 13.727585 -30.661415 30.661423 -30.661415l0 0c8.131897 0 15.930756 3.2303848 21.680908 8.980522c5.750122 5.7501373 8.980499 13.548981 8.980499 21.680893l0 0c0 16.933838 -13.72757 30.661423 -30.661407 30.661423l0 0c-16.933838 0 -30.661423 -13.727585 -30.661423 -30.661423z" fill-rule="evenodd"/><path fill="#e06666" d="m104.938324 278.54004l0 0c0 -16.933838 13.727577 -30.661423 30.661407 -30.661423l0 0c8.131912 0 15.930771 3.2303925 21.680908 8.980515c5.750122 5.7501526 8.980515 13.548981 8.980515 21.680908l0 0c0 16.933838 -13.727585 30.661407 -30.661423 30.661407l0 0c-16.93383 0 -30.661407 -13.72757 -30.661407 -30.661407z" fill-rule="evenodd"/><path stroke="#ffffff" stroke-width="8.0" stroke-linejoin="round" stroke-linecap="butt" d="m104.938324 278.54004l0 0c0 -16.933838 13.727577 -30.661423 30.661407 -30.661423l0 0c8.131912 0 15.930771 3.2303925 21.680908 8.980515c5.750122 5.7501526 8.980515 13.548981 8.980515 21.680908l0 0c0 16.933838 -13.727585 30.661407 -30.661423 30.661407l0 0c-16.93383 0 -30.661407 -13.72757 -30.661407 -30.661407z" fill-rule="evenodd"/><path fill="#000000" fill-opacity="0.0" d="m166.26115 155.88518c12.5 0 24.992126 30.661423 25.0 61.32283c0.007873535 30.661423 -12.468506 61.322845 -24.937012 61.322845" fill-rule="evenodd"/><path stroke="#ffffff" stroke-width="8.0" stroke-linejoin="round" stroke-linecap="butt" d="m166.26115 155.88518c12.5 0 24.992126 30.661407 25.0 61.32283c9.918213E-4 3.832672 -0.19309998 7.665344 -0.55784607 11.438156c-0.18237305 1.886383 -0.40742493 3.7578125 -0.67207336 5.6067657c-0.06617737 0.46224976 -0.1348114 0.92308044 -0.20587158 1.3824005c-0.03553772 0.22966003 -0.07168579 0.45895386 -0.1084137 0.6878357l-0.044006348 0.26922607" fill-rule="evenodd"/><path stroke="#ffffff" stroke-width="8.0" stroke-linecap="butt" d="m178.12775 230.16473l-6.1146545 38.147797l29.205032 -25.29248z" fill-rule="evenodd"/><path fill="#000000" fill-opacity="0.0" d="m135.59973 247.87862c0 -46.0 56.110245 -92.0 112.220474 -92.0" fill-rule="evenodd"/><path stroke="#ffffff" stroke-width="8.0" stroke-linejoin="round" stroke-linecap="butt" d="m135.59973 247.87862c0 -23.0 14.027573 -46.0 35.06891 -63.25c5.26033 -4.3125 10.95903 -8.265625 16.986496 -11.769531c3.0137177 -1.7519531 6.1096497 -3.3916016 9.274078 -4.907715c0.7910919 -0.37902832 1.5864868 -0.7503357 2.3859558 -1.113739c0.39970398 -0.18171692 0.8004608 -0.3614502 1.2021942 -0.5391846l0.40820312 -0.17811584" fill-rule="evenodd"/><path stroke="#ffffff" stroke-width="8.0" stroke-linecap="butt" d="m203.745 179.02989l32.649323 -20.655884l-38.288177 -5.163254z" fill-rule="evenodd"/><path fill="#000000" fill-opacity="0.0" d="m309.1378 155.88518c12.5 0 24.992126 30.661423 25.0 61.32283c0.007873535 30.661423 -12.468506 61.322845 -24.937012 61.322845" fill-rule="evenodd"/><path stroke="#ffffff" stroke-width="8.0" stroke-linejoin="round" stroke-linecap="butt" d="m309.1378 155.88518c12.5 0 24.992126 30.661407 25.0 61.32283c0.0010070801 3.832672 -0.19308472 7.665344 -0.5578308 11.438156c-0.18237305 1.886383 -0.40740967 3.7578125 -0.6720886 5.6067657c-0.06616211 0.46224976 -0.13479614 0.92308044 -0.20587158 1.3824005c-0.03552246 0.22966003 -0.07168579 0.45895386 -0.10839844 0.6878357l-0.044006348 0.26922607" fill-rule="evenodd"/><path stroke="#ffffff" stroke-width="8.0" stroke-linecap="butt" d="m321.0044 230.16473l-6.1146545 38.147797l29.205017 -25.29248z" fill-rule="evenodd"/></g></svg>